<?xml version="1.0" standalone="no"?><!DOCTYPE svg PUBLIC "-//W3C//DTD SVG 1.1//EN" "http://www.w3.org/Graphics/SVG/1.1/DTD/svg11.dtd"><svg class="icon" width="32px" height="32.00px" viewBox="0 0 1024 1024" version="1.1" xmlns="http://www.w3.org/2000/svg"><path fill="#e08608" d="M512.718 1.549C230.377 1.549 1.494 230.432 1.494 512.774S230.377 1024 512.718 1024s511.224-228.884 511.224-511.226S795.06 1.55 512.718 1.55z m0 971.325c-254.108 0-460.102-205.996-460.102-460.102S258.61 52.67 512.718 52.67 972.82 258.665 972.82 512.772 766.826 972.874 512.718 972.874z m232.06-496.332c-79.556-54.133-223.815-135.157-305.959-185.36-33.678-21.239-61.996-12.71-64.717 24.8-1.971 100.468 0 294.317 0 396.523 1.711 38.08 35.282 43.101 64.419 27.812 82.05-49.71 223.071-135.147 305.536-185.11-0.54-0.327 62.614-35.06 0.72-78.665z" /></svg>