<?xml version="1.0" standalone="no"?><!DOCTYPE svg PUBLIC "-//W3C//DTD SVG 1.1//EN" "http://www.w3.org/Graphics/SVG/1.1/DTD/svg11.dtd"><svg class="icon" width="32px" height="32.00px" viewBox="0 0 1024 1024" version="1.1" xmlns="http://www.w3.org/2000/svg"><path fill="#ffffff" d="M918.674 306.225c5.852-5.852 9.428-13.816 9.428-22.593V156.2c0-17.555-14.304-31.858-31.858-31.858H774.339c-10.565-2.276-21.943 0.162-30.07 8.29L512.325 365.063 281.52 134.583c-8.127-8.29-19.505-10.565-30.07-8.29h-121.58c-17.554 0-31.858 14.141-31.858 31.696v126.78c0 8.778 3.576 16.742 9.428 22.594 0.162 0.162 0.162 0.325 0.325 0.487l231.131 230.807-143.847 143.847-39.985-40.31c-12.84-12.84-33.646-12.84-46.486 0-12.841 12.84-12.841 33.646 0 46.65l102.725 103.374-101.913 103.213c-12.84 12.84-12.84 33.808 0 46.649 12.84 12.84 33.646 12.84 46.487 0l101.912-103.213L360.35 942.08c12.841 12.84 33.646 12.84 46.487 0 12.84-12.84 12.84-33.646 0-46.649L368.64 856.91l144.173-144.172L656.01 855.77l-38.197 38.36c-12.84 12.84-12.84 33.646 0 46.486 12.841 12.84 33.646 12.84 46.487 0l102.4-102.725 101.424 102.4c12.841 12.84 33.646 12.84 46.487 0 12.84-12.84 12.84-33.646 0-46.486l-101.588-102.4 102.563-102.888c12.84-12.84 12.84-33.646 0-46.486-12.84-12.84-33.646-12.84-46.486 0l-39.985 39.985L686.08 539.144l231.944-232.432c0.488-0.162 0.488-0.487 0.65-0.487z m-757.11-37.547v-78.994h82.246L465.839 411.55l-80.62 80.62-223.655-223.492z m621.39 459.825l-80.457 80.782L559.299 666.25l80.62-80.782 143.035 143.035z m81.432-460.963l-542.07 542.883-80.62-81.107L782.142 188.22h82.408v79.32z" /></svg>