<?xml version="1.0" standalone="no"?><!DOCTYPE svg PUBLIC "-//W3C//DTD SVG 1.1//EN" "http://www.w3.org/Graphics/SVG/1.1/DTD/svg11.dtd"><svg class="icon" width="32px" height="32.00px" viewBox="0 0 1024 1024" version="1.1" xmlns="http://www.w3.org/2000/svg"><path fill="#ffffff" d="M650.1 953.1H362.6V133c0-33.5 27.2-60.7 60.7-60.7h166.1c33.5 0 60.7 27.2 60.7 60.7v820.1zM389 926.6h234.6V133c0-18.9-15.4-34.2-34.2-34.2H423.3c-18.9 0-34.2 15.4-34.2 34.2l-0.1 793.6z"  /><path fill="#ffffff" d="M911.1 953.1H623.6v-648c0-30.6 24.9-55.5 55.5-55.5h176.5c30.6 0 55.5 24.9 55.5 55.5v648z m-261-26.5h234.6V305.1c0-16-13-29-29-29H679.1c-16 0-29 13-29 29v621.5z"  /><path fill="#ffffff" d="M386.1 953.1H98.5V511.4c0-33.5 27.2-60.7 60.7-60.7h166.1c33.5 0 60.7 27.2 60.7 60.7v441.7h0.1zM125 926.6h234.6V511.4c0-18.9-15.4-34.2-34.2-34.2H159.2c-18.9 0-34.2 15.4-34.2 34.2v415.2z"  /></svg>