<?xml version="1.0" standalone="no"?><!DOCTYPE svg PUBLIC "-//W3C//DTD SVG 1.1//EN" "http://www.w3.org/Graphics/SVG/1.1/DTD/svg11.dtd"><svg class="icon" width="32px" height="32.00px" viewBox="0 0 1024 1024" version="1.1" xmlns="http://www.w3.org/2000/svg"><path fill="#ffffff" d="M841.404513 824.497523c-73.263621 61.992295-144.836544 126.802422-227.117226 199.502477 9.580627-108.768299 23.106219-204.574573 24.796918-300.380848 1.127133-89.043478 20.288387-156.10787 118.912493-177.52339 28.741882-6.199229 22.542653-35.504678 21.41552-57.483764-3.381398-99.751238-3.944964-99.751238-104.259769-79.462851-111.586131 22.542653-111.586131 22.542653-111.586131 134.128784v67.627958c-0.563566 38.886076-31.559714 70.44579-56.920198 70.44579-25.360484 0.563566-56.356632-31.559714-56.920198-69.882224-0.563566-43.394606-1.690699-86.789213 0-130.183819 1.690699-31.559714-10.70776-47.339571-41.140341-55.2295-46.776004-12.962025-93.552009-23.669785-142.018713-26.487616-9.580627-0.563566-25.360484-9.017061-26.487616 4.50853-3.381398 41.140341-6.199229 83.407815-1.690699 123.98459 2.817832 24.233352 33.250413 31.559714 52.975233 36.068244 61.992295 15.216291 75.517887 51.848101 76.64502 112.713264 1.690699 95.806274 18.034122 191.612548 27.614749 287.418822 1.690699 15.216291 0 30.996147 0 50.720969-37.758943-14.089158-55.793065-47.339571-82.280682-69.318657-47.903137-39.449642-93.552009-81.717116-142.018712-121.166759-34.941112-28.741882-47.339571-62.555861-46.212438-108.204733 2.817832-116.094662 1.127133-232.189323 1.127132-348.283984 0-148.781508 94.679141-283.473858 250.223445-342.084755 122.857457-46.212438 275.58393-26.487617 385.479362 77.208585 87.916346 82.844249 127.365988 180.904788 123.98459 300.380848-2.817832 103.696203-2.817832 207.955971 0.563566 312.21574 1.690699 45.648872-10.144194 79.462851-45.085305 108.768299z"  /></svg>