<?xml version="1.0" standalone="no"?><!DOCTYPE svg PUBLIC "-//W3C//DTD SVG 1.1//EN" "http://www.w3.org/Graphics/SVG/1.1/DTD/svg11.dtd"><svg class="icon" width="32px" height="32.00px" viewBox="0 0 1024 1024" version="1.1" xmlns="http://www.w3.org/2000/svg"><path fill="#ffffff" d="M862.594863 277.845899h-0.424192c36.904722-22.906379 61.507871-64.477216 60.235294-111.986744-1.696769-64.901408-53.448219-119.198012-117.501243-122.591549-72.112676-4.241922-131.923778 54.296603-131.923778 126.409279 0 45.812759 24.178956 86.111019 60.659487 108.593206-7.63546 0.424192-15.27092 1.272577-22.482187 2.969346l-25.875725 6.362883 14.422535 22.482187c15.27092 23.330572 23.330572 50.903065 23.330572 78.899751v174.767192c0 38.601491-15.695112 76.354598-43.267606 103.5029l-11.028998 3.81773v313.478044l30.117647-1.272576c48.782104 0 89.928749-36.056338 97.140017-84.838443l1.272577-7.211267c8.059652 53.024027 53.024027 92.04971 105.62386 92.04971l0.848385 1.272576v-313.478044c33.935377-22.482187 77.627175-69.991715 77.627175-111.562552V398.740679c0.424192-67.02237-53.024027-120.89478-118.77382-120.89478z m-215.065451 745.305717h-17.391881v0.424192l17.391881-0.424192z m59.811102-634.59155c0-71.688484-57.265949-130.227009-128.106048-130.227009h-0.424193c44.964374-25.027341 74.657829-75.506214 69.567523-131.923778-5.514499-63.628832-55.56918-115.380282-117.925435-122.591549-80.59652-9.332229-149.315659 55.144988-149.315658 135.317316 0 51.327258 28.420878 96.291632 69.991715 119.622203h-6.362884c-70.840099 0-128.106048 58.114333-128.106048 130.227009v174.767192c0 44.540182 41.570837 83.565866 78.47556 107.32063v352.92792l15.270919-0.424192c50.903065 0 94.170671-37.753107 101.806131-88.656173l2.969346-20.785418 2.969345 19.937034c7.63546 51.327258 51.327258 89.504557 102.654515 89.504557h9.332229v-352.079536l17.391881 2.545153c37.328915-23.754764 59.811102-64.901408 59.811102-109.865783V388.560066z m-405.527755 175.191384V388.560066c0-27.996686 8.059652-55.56918 23.330572-78.899751l14.422535-22.482187-25.875725-6.362884c-7.211268-1.696769-14.846727-2.969345-22.482187-2.969345 37.328915-22.906379 61.932063-64.477216 60.659486-111.986744-2.120961-65.325601-53.872411-119.198012-117.925435-122.591549-71.688484-3.81773-131.499586 54.296603-131.499586 126.409279 0 45.812759 24.178956 86.111019 60.235294 108.169014h-0.424192C96.079536 277.845899 42.631317 331.71831 42.631317 398.740679v160.768849c0 41.146645 43.691798 89.080365 77.627175 111.562552v313.478044l2.969346-1.272576c51.75145 0 95.443248-38.177299 103.502899-89.928749l0.424193-2.120961 1.696768 11.877382c6.787075 46.236951 45.812759 80.172328 92.04971 80.172328l34.783762 1.272576v-313.478044l-11.028998-3.81773c-27.148302-27.572494-42.843413-64.901408-42.843413-103.5029z" /></svg>