<?xml version="1.0" standalone="no"?><!DOCTYPE svg PUBLIC "-//W3C//DTD SVG 1.1//EN" "http://www.w3.org/Graphics/SVG/1.1/DTD/svg11.dtd"><svg class="icon" width="32px" height="32.00px" viewBox="0 0 1024 1024" version="1.1" xmlns="http://www.w3.org/2000/svg"><path fill="#ffd942" d="M877.056 1.3824H141.7728A141.6192 141.6192 0 0 0 0 142.848v737.9968a141.6192 141.6192 0 0 0 141.7728 141.4656H877.056a135.7824 135.7824 0 0 0 146.176-145.8688V147.2512A133.12 133.12 0 0 0 877.056 1.3824z m-13.1584 351.488L466.2784 749.568a55.6544 55.6544 0 0 1-78.1824 0l-229.4784-228.2496A55.7568 55.7568 0 0 1 237.568 442.5728l189.44 189.44 358.8608-358.0416a57.088 57.088 0 0 1 54.8352-16.0256 56.32 56.32 0 0 1 40.192 40.1408 58.2656 58.2656 0 0 1-16.0768 54.6816z m0 0"  /></svg>